<svg width="48" height="48" viewBox="0 0 48 48" fill="none" xmlns="http://www.w3.org/2000/svg">
<g clip-path="url(#clip0_1516_28735)">
<g clip-path="url(#clip1_1516_28735)">
<mask id="mask0_1516_28735" style="mask-type:luminance" maskUnits="userSpaceOnUse" x="0" y="0" width="48" height="48">
<path d="M0 0.000156403H47.9999V48H0V0.000156403Z" fill="white"/>
</mask>
<g mask="url(#mask0_1516_28735)">
<path d="M47.9999 24.0001C47.9999 37.2549 37.2547 48 23.9999 48C10.7451 48 0 37.2549 0 24.0001C0 10.7453 10.7451 0.000156403 23.9999 0.000156403C37.2547 0.000156403 47.9999 10.7453 47.9999 24.0001Z" fill="#94D75B"/>
<path d="M28.4318 27.1553L26.8652 26.2979L37.5329 6.80761L39.0995 7.66505L28.4318 27.1553Z" fill="#7E7E92"/>
<path d="M42.1389 2.83954L42.6799 1.40648C42.7684 1.1721 42.7692 0.913643 42.6822 0.678698C42.5952 0.443753 42.4263 0.248134 42.2066 0.127856C41.9868 0.00757766 41.731 -0.0292633 41.4862 0.024116C41.2414 0.0774953 41.0242 0.217501 40.8745 0.418358L39.959 1.64639L42.1389 2.83954Z" fill="#7E7E92"/>
<path d="M41.3073 1.76922C35.5191 -1.39887 28.2776 0.656689 25.0046 6.34983C24.9877 6.379 24.9769 6.41124 24.9727 6.44465C24.9685 6.47806 24.971 6.51198 24.98 6.54442C24.9891 6.57685 25.0045 6.60715 25.0255 6.63354C25.0464 6.65993 25.0724 6.68188 25.1019 6.69811C25.1541 6.72688 25.2149 6.73612 25.2733 6.72419C25.3317 6.71225 25.384 6.67991 25.4207 6.63295C25.8909 6.02789 26.8655 5.89664 28.1406 6.59461C29.3022 7.23042 29.7498 8.02701 29.6265 8.7097C29.581 8.9617 29.6997 9.21463 29.9244 9.33754C30.1376 9.45435 30.3995 9.42763 30.5874 9.27313C31.4692 8.54854 33.8076 8.90873 36.5715 10.4216C39.3355 11.9344 40.8992 13.7099 40.7641 14.8433C40.7353 15.0848 40.8539 15.3197 41.0672 15.4364C41.2918 15.5594 41.5688 15.523 41.7566 15.3489C42.2652 14.8771 43.1775 14.8248 44.339 15.4606C45.6141 16.1585 46.029 17.0502 45.7727 17.7723C45.7529 17.8286 45.7539 17.89 45.7753 17.9456C45.7967 18.0013 45.8373 18.0475 45.8897 18.0759C45.9192 18.0921 45.9517 18.1021 45.9852 18.1055C46.0187 18.109 46.0526 18.1056 46.0848 18.0958C46.117 18.0859 46.1469 18.0697 46.1728 18.0482C46.1986 18.0266 46.2199 18.0001 46.2354 17.9702C49.2669 12.1449 47.0955 4.9373 41.3073 1.76922Z" fill="#FF8562"/>
<path d="M41.3079 1.7692C38.2259 0.0822716 33.1256 3.46832 29.916 9.33218C29.919 9.33387 29.9219 9.33584 29.925 9.33752C30.1383 9.45434 30.4001 9.42762 30.588 9.27312C31.4698 8.54853 33.8082 8.90871 36.5722 10.4216C39.3362 11.9344 40.8998 13.7099 40.7647 14.8433C40.736 15.0848 40.8545 15.3197 41.0678 15.4364C41.0709 15.4381 41.0741 15.4395 41.0773 15.4411C44.2866 9.57715 44.3899 3.45614 41.3079 1.7692Z" fill="#EDF5FB"/>
<path d="M37.8594 13.108H10.1413C9.65198 13.108 9.2677 13.5269 9.3098 14.0143L11.9676 44.769C15.5052 46.8231 19.6151 48 24.0003 48C28.3855 48 32.4955 46.8231 36.0331 44.769L38.6909 14.0143C38.733 13.5269 38.3487 13.108 37.8594 13.108Z" fill="#EDF5FB"/>
<path d="M13.8913 13.108H10.1413C9.65198 13.108 9.2677 13.5269 9.3098 14.0143L11.9676 44.769C13.2125 45.4919 14.5202 46.1008 15.8748 46.5882L13.0598 14.0143C13.0177 13.5269 13.402 13.108 13.8913 13.108Z" fill="#D5E7FC"/>
<path d="M11.9678 44.7691C15.5053 46.8231 19.6153 48 24.0006 48C28.3857 48 32.4957 46.8231 36.0332 44.7691L37.5636 27.0607H10.4375L11.9678 44.7691Z" fill="#FFEB97"/>
<path d="M31.3181 34.3786C27.2765 34.3786 24.0002 31.1023 24.0002 27.0607C24.0002 23.0192 20.7239 19.7429 16.6823 19.7429H9.80469L11.9675 44.7691C15.505 46.8231 19.615 48 24.0002 48C28.3854 48 32.4953 46.8231 36.033 44.7691L37.1852 31.4348C35.851 33.2217 33.7197 34.3786 31.3181 34.3786Z" fill="#FFF1A9"/>
<path d="M13.5547 19.7429H9.80469L11.9674 44.7692C13.2123 45.4921 14.5201 46.1009 15.8746 46.5883L13.5547 19.7429Z" fill="#FFEB97"/>
<path d="M10.8626 25.8006C6.76469 25.8006 3.15495 27.9293 1.08008 31.1388C3.47191 38.8264 9.62499 44.8562 17.3866 47.0766C20.472 44.9809 22.503 41.4437 22.503 37.441C22.503 31.0224 17.2811 25.8006 10.8626 25.8006Z" fill="#FFD267"/>
<path d="M11.5645 28.6784V35.0534C11.5645 35.3081 11.8723 35.4356 12.0524 35.2555L16.557 30.751C16.8991 30.4088 16.8542 29.8395 16.46 29.5588C15.2992 28.7319 13.9486 28.1549 12.4875 27.9065C12.0058 27.8246 11.5645 28.1898 11.5645 28.6784Z" fill="#F9BE58"/>
<path d="M12.0524 39.6264C11.8723 39.4463 11.5645 39.5739 11.5645 39.8285V44.5314C12.6358 45.1811 13.7565 45.7456 14.9163 46.2198C15.4574 45.9691 15.9742 45.6689 16.4601 45.3231C16.8542 45.0424 16.8991 44.4731 16.557 44.1309L12.0524 39.6264Z" fill="#F9BE58"/>
<path d="M13.2493 36.7379H19.6244C20.113 36.7379 20.4782 36.2965 20.3962 35.8148C20.1479 34.3537 19.5709 33.0032 18.7439 31.8424C18.4632 31.4482 17.8939 31.4032 17.5518 31.7454L13.0472 36.2499C12.8671 36.43 12.9947 36.7379 13.2493 36.7379Z" fill="#F9BE58"/>
<path d="M13.0472 38.6321L17.5518 43.1367C17.8939 43.4787 18.4632 43.4338 18.7439 43.0397C19.5709 41.8788 20.1479 40.5283 20.3962 39.0673C20.4782 38.5855 20.113 38.1441 19.6244 38.1441H13.2493C12.9947 38.1441 12.8671 38.452 13.0472 38.6321Z" fill="#F9BE58"/>
<path d="M10.1583 28.6784V35.0534C10.1583 35.3081 9.85038 35.4356 9.67029 35.2555L5.16571 30.751C4.82362 30.4088 4.86852 29.8395 5.26274 29.5588C6.42355 28.7319 7.77411 28.1549 9.2352 27.9065C9.71688 27.8246 10.1583 28.1898 10.1583 28.6784Z" fill="#F9BE58"/>
<path d="M9.67074 39.6264L7.69141 41.6058C8.46891 42.3269 9.29314 42.9958 10.1587 43.6084V39.8285C10.1587 39.5739 9.85084 39.4463 9.67074 39.6264Z" fill="#F9BE58"/>
<path d="M4.17121 31.7453C3.82903 31.4031 3.25978 31.4481 2.979 31.8422C2.59056 32.388 2.25985 32.9725 1.99219 33.5866C2.46792 34.6768 3.02424 35.7302 3.65653 36.7378H8.47367C8.72829 36.7378 8.85579 36.4299 8.6757 36.2498L4.17121 31.7453Z" fill="#F9BE58"/>
<path d="M8.47513 38.1441H4.61133C5.24756 39.0152 5.94149 39.8426 6.68845 40.6208L8.67725 38.6321C8.85735 38.452 8.72975 38.1441 8.47513 38.1441Z" fill="#F9BE58"/>
<path d="M33.293 38.8623C33.293 39.8876 32.4619 40.7188 31.4366 40.7188C30.4113 40.7188 29.5801 39.8876 29.5801 38.8623C29.5801 37.8371 30.4113 37.0059 31.4366 37.0059C32.4619 37.0059 33.293 37.8371 33.293 38.8623Z" fill="#FFF9BB"/>
<path d="M28.0755 42.588C28.0755 43.2567 27.5335 43.7986 26.8649 43.7986C26.1963 43.7986 25.6543 43.2567 25.6543 42.588C25.6543 41.9194 26.1963 41.3774 26.8649 41.3774C27.5335 41.3774 28.0755 41.9194 28.0755 42.588Z" fill="#FFF9BB"/>
</g>
</g>
</g>
<defs>
<clipPath id="clip0_1516_28735">
<rect width="48" height="48" rx="8" fill="white"/>
</clipPath>
<clipPath id="clip1_1516_28735">
<rect width="48" height="48" fill="white"/>
</clipPath>
</defs>
</svg>
