<svg width="48" height="48" viewBox="0 0 48 48" fill="none" xmlns="http://www.w3.org/2000/svg">
<g clip-path="url(#clip0_1516_28617)">
<g clip-path="url(#clip1_1516_28617)">
<path d="M4.33256 36.9008L41.7767 39.5757C45.0211 35.615 46.9686 30.5508 46.9686 25.0313C46.9686 12.3461 36.6851 2.06277 23.9999 2.06277C11.3147 2.06277 1.03125 12.3461 1.03125 25.0313C1.03125 29.3751 2.23744 33.4369 4.33256 36.9008Z" fill="#FFDD40"/>
<path d="M12.3809 44.8467C15.7897 46.85 19.7602 48 24 48C28.2397 48 32.2102 46.85 35.6191 44.8467H12.3809Z" fill="#2A428C"/>
<path d="M22.1413 47.9251C21.5108 47.1631 21.5815 46.3587 21.7874 45.7713C21.8946 45.4654 21.8849 45.1414 21.7802 44.8467H12.3809C15.2865 46.5543 18.6005 47.6412 22.1413 47.9251Z" fill="#1C2E7A"/>
<path d="M9.76953 30.4572H29.1709V33.0199H9.76953V30.4572Z" fill="#E80054"/>
<path d="M44.0021 16.0955L33.4876 22.1661C33.9057 22.9913 34.1461 23.9035 34.1461 24.8661C34.1461 25.9962 33.3794 26.9691 32.2815 27.2322L32.0156 27.2959C32.0516 27.3131 33.0076 28.4753 35.7547 29.0657C35.802 29.0759 36.9142 29.3285 36.9218 30.4416C36.9262 31.0811 36.2084 31.85 35.0703 31.8446L33.0602 31.8454V32.1417C33.5537 32.1417 33.9728 32.5687 33.9213 33.0935C33.8783 33.5302 33.4863 33.8723 33.0286 33.8723H32.2732V34.1687C33.2815 34.1687 33.592 35.5492 32.662 35.9737L32.0421 36.2568H33.2076C33.5871 36.2568 33.9403 36.3686 34.239 36.5589L42.5155 31.7805L44.0021 16.0955Z" fill="#E9EFFF"/>
<path d="M35.0702 31.8446L33.0601 31.8454V32.1417C33.5536 32.1417 33.9727 32.5688 33.9212 33.0935C33.8782 33.5303 33.4862 33.8724 33.0285 33.8724H32.2731V34.1687C33.2814 34.1687 33.5919 35.5493 32.6619 35.9738L32.042 36.2568H33.2075C33.5871 36.2568 33.9402 36.3686 34.2389 36.559L35.7856 35.666V31.7344C35.5546 31.8095 35.313 31.8467 35.0702 31.8446ZM34.1461 24.8662C34.1461 25.9962 33.3794 26.9692 32.2815 27.2322L32.0156 27.2959C32.0516 27.3132 33.0076 28.4754 35.7547 29.0657C35.7584 29.0665 35.7696 29.0691 35.7857 29.0732V20.8392L33.4876 22.166C33.9056 22.9913 34.1461 23.9035 34.1461 24.8662Z" fill="#BEC8F7"/>
<path d="M25.7481 7.16655L24.8565 3.6348C24.8327 3.54046 24.8277 3.44235 24.8418 3.34608C24.8559 3.24981 24.8888 3.15725 24.9387 3.0737C24.9885 2.99015 25.0544 2.91725 25.1324 2.85914C25.2105 2.80104 25.2992 2.75888 25.3935 2.73508C25.7905 2.63448 26.1931 2.87533 26.2934 3.27208L27.1849 6.80383C27.2303 6.99342 27.1992 7.19327 27.0982 7.36006C26.9973 7.52685 26.8347 7.64714 26.6457 7.69486C26.4566 7.74257 26.2564 7.71388 26.0884 7.61499C25.9204 7.51609 25.7981 7.35497 25.7481 7.16655Z" fill="#FF4155"/>
<path d="M22.4108 1.72885H19.364C18.9547 1.72885 18.623 1.39716 18.623 0.987946C18.623 0.578727 18.9547 0.24704 19.364 0.24704H22.4109C22.6074 0.247052 22.7959 0.325124 22.9348 0.464079C23.0737 0.603035 23.1518 0.791492 23.1518 0.987993C23.1518 1.18449 23.0737 1.37294 22.9347 1.51188C22.7958 1.65082 22.6073 1.72886 22.4108 1.72885Z" fill="#E80054"/>
<path d="M26.7993 18.1119C29.6365 18.1119 32.4355 19.8711 33.5913 22.3824L43.9745 16.3877L44.3807 12.102H21.8672L22.4368 18.1118H26.7993V18.1119Z" fill="#FF4155"/>
<path d="M21.8672 12.1021L22.4368 18.1119H26.7993C29.6365 18.1119 32.4355 19.8711 33.5913 22.3824L35.7857 21.1155V19.4014C35.7857 14.1451 37.7388 12.5724 38.8728 12.1021H21.8672Z" fill="#E80054"/>
<path d="M42.5436 31.4883L33.9922 36.4254C34.6643 36.7265 35.1345 37.4004 35.1345 38.1833C35.1345 39.2102 34.3298 40.0542 33.3026 40.1047L32.5713 40.1407L33.2591 40.3919C34.1431 40.7147 34.488 41.8945 33.7687 42.6516C32.4809 44.0066 30.7427 44.753 28.8744 44.753H28.5742V44.9012H35.5273C37.9121 43.5138 40.0289 41.7101 41.7771 39.5756L42.5436 31.4883Z" fill="#FF4155"/>
<path d="M35.786 35.3898L33.9921 36.4254C34.6642 36.7265 35.1344 37.4004 35.1344 38.1833C35.1344 39.2102 34.3298 40.0542 33.3025 40.1048L32.5713 40.1408L33.259 40.392C34.143 40.7148 34.4879 41.8946 33.7686 42.6516C32.4808 44.0067 30.7426 44.7531 28.8743 44.7531H28.5742V44.9013H35.5273C36.2175 44.4994 36.8863 44.062 37.531 43.5906C35.7022 42.4595 35.7861 40.258 35.7861 40.258L35.786 35.3898Z" fill="#E80054"/>
<path d="M43.814 9.73106C43.6813 8.07862 42.2887 6.76724 40.6036 6.76724H25.3686C23.6835 6.76724 22.2909 8.07862 22.1582 9.73106H43.814Z" fill="#E9EFFF"/>
<path d="M35.6905 6.76733H25.3686C23.6835 6.76733 22.2909 8.07871 22.1582 9.73115H35.7041C34.207 9.39543 34.1596 7.09696 35.6905 6.76733Z" fill="#D3DCFB"/>
<path d="M44.5695 12.2009H21.6794C20.9428 12.2009 20.3457 11.6038 20.3457 10.8672C20.3457 10.1306 20.9428 9.53354 21.6794 9.53354H44.5695C45.3061 9.53354 45.9032 10.1306 45.9032 10.8672C45.9033 11.6038 45.3062 12.2009 44.5695 12.2009Z" fill="#D3DCFB"/>
<path d="M34.295 10.8672C34.295 10.1306 34.892 9.53354 35.6286 9.53354H21.6794C20.9428 9.53354 20.3457 10.1306 20.3457 10.8672C20.3457 11.6038 20.9428 12.2009 21.6794 12.2009H35.6286C34.892 12.2009 34.295 11.6038 34.295 10.8672Z" fill="#BEC8F7"/>
<path d="M30.0221 15.7739H24.9753C24.7788 15.7739 24.5903 15.6958 24.4514 15.5569C24.3124 15.4179 24.2344 15.2295 24.2344 15.033C24.2344 14.8365 24.3124 14.648 24.4514 14.5091C24.5903 14.3701 24.7788 14.2921 24.9753 14.2921H30.0221C30.4313 14.2921 30.763 14.6238 30.763 15.033C30.763 15.4422 30.4313 15.7739 30.0221 15.7739Z" fill="#FF7186"/>
<path d="M32.7746 40.1592H20.971L20.6949 40.4353C20.0812 41.0491 19.0877 41.0491 18.474 40.4353L18.1979 40.1592H6.71875C8.36729 42.0415 10.311 43.6431 12.4739 44.9013H28.8747C30.8436 44.9013 32.6193 44.0766 33.8763 42.7538C34.8069 41.7745 34.1255 40.1592 32.7746 40.1592Z" fill="#FCAD6D"/>
<path d="M20.6162 41.0912C20.666 40.8908 20.6723 40.6848 20.6377 40.4857C20.021 41.0468 19.0684 41.0312 18.4726 40.4353L18.1965 40.1592H6.79545L6.75195 40.1978C8.39309 42.0634 10.3248 43.6517 12.4725 44.9012H21.7978C21.7236 44.6642 21.5921 44.4492 21.4149 44.2752C20.3101 43.1885 20.4314 41.8339 20.6162 41.0912Z" fill="#FD995B"/>
<path d="M13.5005 35.4746C12.804 34.7789 11.9375 34.2776 10.9871 34.0208H6.89419C6.29278 34.0208 5.80078 34.5128 5.80078 35.1142C5.80078 35.7156 6.29278 36.2076 6.89419 36.2076H13.8959C13.9984 36.2076 14.0972 36.1923 14.1914 36.1656L13.5005 35.4746Z" fill="#FF9100"/>
<path d="M32.2739 34.0208H28.1809C27.2306 34.2776 26.3641 34.7789 25.6676 35.4746L24.9766 36.1657C25.0708 36.1923 25.1696 36.2077 25.2721 36.2077H32.2738C32.8752 36.2077 33.3672 35.7157 33.3672 35.1143C33.3673 34.5128 32.8753 34.0208 32.2739 34.0208Z" fill="#FFB332"/>
<path d="M6.80516 40.258H18.2953L14.146 36.1088H5.95906C5.30122 36.1088 4.71284 36.4195 4.33203 36.9009C5.05323 38.0924 5.881 39.216 6.80516 40.258Z" fill="#823C26"/>
<path d="M33.2074 36.1088H25.0205L20.8711 40.258H33.2073C34.3483 40.258 35.2819 39.3245 35.2819 38.1834C35.2821 37.0423 34.3484 36.1088 33.2074 36.1088Z" fill="#A05838"/>
<path d="M23.6346 30.6003C21.6094 30.6003 21.6083 28.6244 19.5831 28.6244C17.5579 28.6244 17.5568 30.6003 15.5316 30.6003C13.575 30.6003 13.5083 28.7563 11.6797 28.6314V30.8081C11.6797 31.4601 12.2131 31.9937 12.8652 31.9937H25.9058C26.5578 31.9937 27.0913 31.4601 27.0913 30.8081V28.6908C25.6368 29.0325 25.4392 30.6003 23.6346 30.6003Z" fill="#FF7186"/>
<path d="M17.4938 31.7888C17.1212 31.427 17.0918 30.8334 17.1063 30.5193C17.1091 30.4535 17.0972 30.388 17.0714 30.3275C17.0457 30.2669 17.0067 30.2129 16.9574 30.1694C16.9521 30.1647 16.9475 30.1601 16.9424 30.1554C16.585 30.4136 16.1543 30.6003 15.5324 30.6003C13.5758 30.6003 13.5091 28.7563 11.6805 28.6314V30.8081C11.6805 31.4601 12.2139 31.9937 12.866 31.9937H17.6058C17.5895 31.9158 17.5506 31.8446 17.4938 31.7888ZM7.4322 30.6003C7.1008 30.6003 6.82433 30.5466 6.58358 30.4581C5.67898 31.4008 4.75077 32.0214 3.97461 31.9883V31.9936H10.4949C11.147 31.9936 11.6805 31.46 11.6805 30.808V28.6313C11.6144 28.6267 11.5482 28.6244 11.482 28.6243C9.45711 28.6244 9.45711 30.6003 7.4322 30.6003ZM35.0697 31.9903C34.3196 31.9852 33.4414 31.3513 32.5843 30.4581C32.3435 30.5466 32.0672 30.6003 31.7357 30.6003C29.7108 30.6003 29.7108 28.6244 27.6859 28.6244C27.4654 28.6244 27.27 28.649 27.0922 28.6907V30.808C27.0922 31.46 27.6257 31.9936 28.2777 31.9936H35.0697V31.9903Z" fill="#FF4155"/>
<path d="M25.5743 4.4415C25.1326 4.4415 24.7302 4.1431 24.6172 3.69525C24.4935 3.20364 24.2091 2.76744 23.8092 2.45592C23.4093 2.14439 22.9167 1.9754 22.4098 1.97578C21.8642 1.97578 21.4219 1.53347 21.4219 0.987845C21.422 0.442314 21.8642 1.39656e-06 22.4098 1.39656e-06C23.3567 -0.000766104 24.2767 0.31483 25.0237 0.896674C25.7707 1.47852 26.3019 2.29325 26.5329 3.2115C26.6665 3.74063 26.3459 4.27763 25.8169 4.41122C25.7376 4.43132 25.6561 4.44149 25.5743 4.4415Z" fill="#FF7186"/>
<path d="M4.73918 29.1657C4.30559 29.02 3.84227 28.9208 3.38196 28.9208C3.38196 28.9208 2.10621 29.1902 2.09768 30.4408C2.08877 31.736 4.47518 33.0646 6.67981 30.6547C5.84149 30.3452 5.44446 29.605 4.73918 29.1657ZM34.4288 29.1657C34.8624 29.02 35.3258 28.9208 35.786 28.9208C35.786 28.9208 37.0617 29.1902 37.0703 30.4408C37.0792 31.736 34.6928 33.0646 32.4881 30.6547C33.3265 30.3452 33.7235 29.605 34.4288 29.1657Z" fill="#24B55E"/>
<path d="M33.0603 31.9936H6.13888C5.61228 31.9936 5.15009 32.3822 5.09872 32.9062C5.03956 33.5085 5.51647 34.0207 6.10719 34.0207H9.51359C11.009 34.0207 12.4431 34.6147 13.5005 35.6721L18.3685 40.54C19.0396 41.2112 20.1278 41.2112 20.7989 40.54L25.6669 35.6721C26.7243 34.6147 28.1584 34.0207 29.6538 34.0207H33.0285C33.5551 34.0207 34.0173 33.6321 34.0687 33.108C34.1279 32.5058 33.651 31.9936 33.0603 31.9936Z" fill="#FFDD40"/>
<path d="M5.09872 32.9062C5.03956 33.5085 5.51656 34.0207 6.10728 34.0207H9.51369C10.2541 34.0207 10.9873 34.1665 11.6714 34.4499C12.3555 34.7332 12.977 35.1486 13.5006 35.6722L18.3686 40.5401C19.0397 41.2113 20.1279 41.2113 20.799 40.5401L23.4688 37.8703C21.2425 38.9721 19.0194 35.5927 17.8046 34.3779C16.9806 33.554 17.2743 32.7509 17.5486 32.3194C17.6098 32.2225 17.6303 32.1054 17.6057 31.9935H6.13888C5.61228 31.9936 5.15009 32.3822 5.09872 32.9062Z" fill="#FFB332"/>
<path d="M32.1903 27.2503H6.97542C5.95364 28.3684 3.38086 28.9207 3.38086 28.9207C5.40605 28.9207 5.40605 30.8966 7.43114 30.8966C9.45605 30.8966 9.45605 28.9207 11.481 28.9207C13.5061 28.9207 13.5061 30.8966 15.5313 30.8966C17.5565 30.8966 17.5576 28.9207 19.5828 28.9207C21.608 28.9207 21.6091 30.8966 23.6343 30.8966C25.6595 30.8966 25.6595 28.9207 27.6847 28.9207C29.7096 28.9207 29.7096 30.8966 31.7345 30.8966C33.7597 30.8966 33.7597 28.9207 35.7848 28.9207C35.7849 28.9208 33.212 28.3684 32.1903 27.2503Z" fill="#49D88B"/>
<path d="M3.38086 28.9207C5.40605 28.9207 5.40605 30.8966 7.43114 30.8966C9.45605 30.8966 9.45605 28.9207 11.481 28.9207C13.5061 28.9207 13.5061 30.8966 15.5313 30.8966C16.2343 30.8966 16.6932 30.6584 17.0777 30.3476C17.0524 30.2792 17.0108 30.218 16.9563 30.1694C15.8448 29.1795 16.378 28.1816 16.7445 27.7171C16.7958 27.6516 16.8271 27.5727 16.8343 27.4898C16.8415 27.4069 16.8245 27.3237 16.7852 27.2503H6.97542C5.95373 28.3684 3.38086 28.9207 3.38086 28.9207Z" fill="#38C674"/>
<path d="M26.7994 17.9638H12.3682C8.55611 17.9638 4.87305 21.0541 4.87305 24.8662C4.87305 26.2921 6.02898 27.4479 7.45483 27.4479H31.7127C33.1387 27.4479 34.2945 26.2921 34.2945 24.8662C34.2945 21.0541 30.6115 17.9638 26.7994 17.9638Z" fill="#FCAD6D"/>
<path d="M16.7326 27.1704C14.4831 24.5881 16.7191 22.0138 16.7191 22.0138L16.992 19.9732C16.3047 19.2859 16.3972 18.6857 16.5713 18.3244C16.6251 18.2123 16.6469 18.0875 16.6343 17.9638H12.3682C8.55611 17.9638 4.87305 21.0541 4.87305 24.8662C4.87305 26.292 6.02898 27.4479 7.45483 27.4479H16.837C16.8366 27.3459 16.7995 27.2474 16.7326 27.1704Z" fill="#FD995B"/>
<path d="M26.107 21.7968C26.0382 21.728 25.9836 21.6463 25.9464 21.5564C25.9092 21.4665 25.89 21.3701 25.89 21.2728C25.89 21.1755 25.9092 21.0792 25.9464 20.9893C25.9837 20.8994 26.0383 20.8177 26.1071 20.7489L26.666 20.1902C26.8056 20.0542 26.9931 19.9787 27.188 19.98C27.3828 19.9813 27.5693 20.0592 27.7071 20.197C27.8449 20.3348 27.9228 20.5214 27.9241 20.7162C27.9253 20.9111 27.8498 21.0986 27.7138 21.2381L27.1548 21.7969C27.0159 21.9358 26.8274 22.0138 26.6309 22.0138C26.4344 22.0138 26.2459 21.9357 26.107 21.7968ZM21.0629 21.7968C20.9941 21.728 20.9395 21.6463 20.9023 21.5564C20.865 21.4665 20.8459 21.3701 20.8459 21.2728C20.8459 21.1755 20.8651 21.0792 20.9023 20.9893C20.9396 20.8994 20.9941 20.8177 21.063 20.7489L21.6218 20.1902C21.7608 20.0512 21.9492 19.9732 22.1458 19.9732C22.3423 19.9732 22.5307 20.0513 22.6697 20.1902C22.8086 20.3292 22.8867 20.5177 22.8867 20.7142C22.8867 20.9107 22.8086 21.0992 22.6696 21.2381L22.1108 21.7969C21.9718 21.9358 21.7833 22.0138 21.5868 22.0138C21.3903 22.0138 21.2018 21.9357 21.0629 21.7968ZM16.0188 21.7968C15.95 21.728 15.8955 21.6463 15.8582 21.5564C15.821 21.4665 15.8018 21.3701 15.8018 21.2728C15.8019 21.1755 15.821 21.0792 15.8583 20.9893C15.8955 20.8994 15.9501 20.8177 16.0189 20.7489L16.5778 20.1902C16.7167 20.0512 16.9052 19.9732 17.1017 19.9732C17.2982 19.9732 17.4867 20.0513 17.6257 20.1902C17.7646 20.3292 17.8427 20.5177 17.8427 20.7142C17.8426 20.9107 17.7646 21.0992 17.6256 21.2381L17.0668 21.7969C16.9278 21.9358 16.7393 22.0138 16.5428 22.0138C16.3463 22.0138 16.1578 21.9357 16.0188 21.7968ZM10.9748 21.7968C10.906 21.728 10.8514 21.6463 10.8142 21.5564C10.777 21.4665 10.7578 21.3701 10.7578 21.2728C10.7578 21.1755 10.777 21.0792 10.8142 20.9893C10.8515 20.8994 10.9061 20.8177 10.9749 20.7489L11.5337 20.1902C11.6727 20.0512 11.8612 19.9732 12.0577 19.9732C12.2542 19.9732 12.4427 20.0513 12.5816 20.1902C12.7206 20.3292 12.7986 20.5177 12.7986 20.7142C12.7986 20.9107 12.7205 21.0992 12.5816 21.2381L12.0227 21.7969C11.8837 21.9358 11.6953 22.0138 11.4987 22.0138C11.3022 22.0138 11.1138 21.9357 10.9748 21.7968Z" fill="#FCF0BE"/>
<path d="M25.442 1.27013C25.0464 0.867504 24.5744 0.547801 24.0538 0.329717C23.5332 0.111632 22.9743 -0.000458354 22.4098 1.40864e-06C21.8642 1.40864e-06 21.4219 0.442408 21.4219 0.987939C21.4219 1.53356 21.8642 1.97588 22.4098 1.97588C23.0336 1.97588 23.6076 2.22966 24.024 2.64881C23.8256 1.80085 24.5981 1.04738 25.442 1.27013Z" fill="#FF4155"/>
</g>
</g>
<defs>
<clipPath id="clip0_1516_28617">
<rect width="48" height="48" rx="8" fill="white"/>
</clipPath>
<clipPath id="clip1_1516_28617">
<rect width="48" height="48" fill="white"/>
</clipPath>
</defs>
</svg>
