<svg width="48" height="48" viewBox="0 0 48 48" fill="none" xmlns="http://www.w3.org/2000/svg">
<g clip-path="url(#clip0_1516_28657)">
<g clip-path="url(#clip1_1516_28657)">
<path d="M24.0001 2.09744C11.3244 2.09744 1.04883 12.373 1.04883 25.0487C1.04883 34.1397 6.33469 41.9956 14.0004 45.7122L33.9508 45.7365C41.6431 42.0298 46.9514 34.1592 46.9514 25.0488C46.9514 12.3731 36.6758 2.09744 24.0001 2.09744Z" fill="#FFD304"/>
<path d="M26.6017 9.65461L28.0851 1.0905C28.0971 1.02087 28.0954 0.949552 28.0799 0.880609C28.0644 0.811666 28.0355 0.746451 27.9948 0.688689C27.9541 0.630927 27.9024 0.581749 27.8427 0.543965C27.783 0.50618 27.7164 0.480529 27.6468 0.468476L24.9885 0.00804975C24.8479 -0.0163057 24.7033 0.0161906 24.5867 0.0983903C24.47 0.18059 24.3908 0.305761 24.3664 0.446368L22.7715 9.65461H26.6017Z" fill="#9BD8F9"/>
<path d="M34.9614 31.7792C34.3777 31.8441 33.9221 32.3406 33.9221 32.9413V35.3508C33.9221 36.3882 33.0782 37.2321 32.0408 37.2321C31.0034 37.2321 30.1593 36.3882 30.1593 35.3508V33.4415L30.1578 33.4215C30.0063 32.3649 29.0871 31.5681 28.0199 31.5681C26.9528 31.5681 26.0337 32.3649 25.882 33.4215L25.8805 33.5215C25.8805 34.5588 25.0366 35.4029 23.9992 35.4029C23.9539 35.4029 23.9096 35.3992 23.8651 35.396L23.8613 35.4808C23.7374 35.6055 23.4039 35.9877 23.3867 36.5072C23.3743 36.8852 23.5305 37.2485 23.8515 37.5879L23.0873 43.7492C23.0366 43.8799 22.7733 44.6244 23.1261 45.1535C23.3493 45.4882 23.762 45.658 24.3529 45.658C24.5842 45.658 24.7362 45.7285 24.8178 45.8736C25.0399 46.2687 24.7768 47.1269 24.42 47.941L27.38 47.7514C29.6593 47.4157 31.8745 46.7363 33.95 45.7364L35.1023 31.779H34.9614V31.7792Z" fill="#FCACB8"/>
<path d="M24.3547 45.5175C22.5045 45.5175 23.2263 43.7845 23.2263 43.7845L24.001 37.5383C22.9376 36.475 24.001 35.5434 24.001 35.5434L24.0073 35.4026C24.0052 35.4026 24.0031 35.4029 24.001 35.4029C22.9636 35.4029 22.1196 34.5588 22.1196 33.5214V29.9815L22.1181 29.9616C21.9665 28.9049 21.0473 28.1081 19.9801 28.1081C18.9129 28.1081 17.9939 28.9049 17.8422 29.9616L17.8407 29.9714L17.8408 31.039C17.8408 32.0764 16.9968 32.9204 15.9594 32.9204C14.922 32.9204 14.078 32.0764 14.078 31.039V28.4204C14.078 27.7829 13.6975 27.233 13.1517 26.985H12.4551L14.0012 45.7123C14.7681 46.0839 15.5551 46.4124 16.3586 46.6961L16.3591 46.6953L20.4987 47.7324C21.5231 47.8891 22.5569 47.9765 23.5931 47.9943L24.5793 47.9311C25.0662 46.8031 25.3932 45.5175 24.3547 45.5175Z" fill="#FF7186"/>
<path d="M17.1494 45.257L19.8077 45.7174C19.8774 45.7295 19.9487 45.7277 20.0176 45.7122C20.0866 45.6967 20.1518 45.6678 20.2095 45.6271C20.2673 45.5864 20.3165 45.5347 20.3543 45.475C20.392 45.4152 20.4177 45.3487 20.4297 45.279L22.3202 34.3647C22.1876 34.1034 22.1184 33.8145 22.1182 33.5215V29.9816L22.1167 29.9616C21.965 28.9049 21.0459 28.1081 19.9787 28.1081C19.8382 28.1081 19.7005 28.1227 19.5665 28.1491L16.711 44.635C16.699 44.7046 16.7007 44.776 16.7162 44.8449C16.7317 44.9138 16.7607 44.9791 16.8014 45.0368C16.8421 45.0946 16.8938 45.1437 16.9535 45.1815C17.0132 45.2193 17.0798 45.245 17.1494 45.257Z" fill="#FF4155"/>
<path d="M26.4944 9.46725L24.7294 19.3962H37.2634C36.251 15.1129 33.2214 11.6099 29.2329 9.94454C28.4686 9.62538 27.6466 9.46725 26.8184 9.46725H26.4944ZM22.9493 9.46725H21.1344C20.3062 9.46725 19.4842 9.62538 18.72 9.94454C14.7315 11.6099 11.7018 15.113 10.6895 19.3962H21.1844L22.9493 9.46725Z" fill="#E4E5EA"/>
<path d="M21.084 19.3962H24.9142L26.634 9.46725H22.8037L21.084 19.3962Z" fill="#73C3F9"/>
<path d="M30.9744 42.9051C32.0247 42.308 32.3921 40.9724 31.795 39.9221C31.1978 38.8718 29.8623 38.5044 28.8119 39.1016C27.7616 39.6987 27.3942 41.0343 27.9914 42.0846C28.5885 43.1349 29.9241 43.5023 30.9744 42.9051Z" fill="#543E5B"/>
<path d="M19.7497 37.8629C20.0299 36.6877 19.3043 35.5078 18.1291 35.2276C16.9538 34.9474 15.7739 35.6729 15.4937 36.8482C15.2135 38.0235 15.9391 39.2034 17.1143 39.4836C18.2896 39.7638 19.4695 39.0382 19.7497 37.8629Z" fill="#543E5B"/>
<path d="M25.4123 44.6084C24.2041 44.6084 23.2246 45.5878 23.2246 46.7961C23.2246 47.2388 23.3565 47.6504 23.5826 47.9948C23.7213 47.9972 23.8599 48 23.9992 48C25.1481 48 26.2769 47.9145 27.3804 47.7515C27.5252 47.4538 27.6002 47.127 27.5997 46.796C27.5998 45.5878 26.6204 44.6084 25.4123 44.6084Z" fill="#543E5B"/>
<path d="M24.111 42.9068C24.3912 41.7316 23.6656 40.5517 22.4904 40.2715C21.3151 39.9913 20.1352 40.7169 19.855 41.8921C19.5748 43.0674 20.3004 44.2473 21.4757 44.5275C22.6509 44.8077 23.8308 44.0821 24.111 42.9068Z" fill="#543E5B"/>
<path d="M18.5425 44.6084C17.3681 44.6084 16.4101 45.5338 16.3574 46.6953C17.7083 47.1727 19.1012 47.5216 20.5176 47.7374C20.6579 47.4434 20.7306 47.1217 20.7301 46.796C20.7301 45.5878 19.7507 44.6084 18.5425 44.6084Z" fill="#543E5B"/>
<path d="M24.0004 37.5383C22.8837 37.5383 21.9785 38.4435 21.9785 39.5602C21.9785 40.6768 22.8837 41.582 24.0004 41.582C25.117 41.582 26.0222 40.6768 26.0222 39.5602C26.0223 38.4435 25.1171 37.5383 24.0004 37.5383Z" fill="#6C5475"/>
<path d="M20.7622 22.3273H10.5801L12.4536 26.9849H12.5005C13.2933 26.9849 13.936 27.6276 13.936 28.4204V31.039C13.936 32.1556 14.8412 33.0608 15.9578 33.0608C17.0745 33.0608 17.9797 32.1556 17.9797 31.039V29.9816C18.1088 29.0822 18.8283 28.375 19.7335 28.2652L20.7622 22.3273Z" fill="#774342"/>
<path d="M24.2175 22.3273L22.1406 34.3176C22.4498 35.0383 23.1654 35.5434 23.9992 35.5434C25.1158 35.5434 26.021 34.6382 26.021 33.5215V33.4415C26.1616 32.4621 27.0017 31.7087 28.0199 31.7087C29.0382 31.7087 29.8782 32.4622 30.0188 33.4415V35.3508C30.0188 36.4674 30.924 37.3726 32.0407 37.3726C33.1573 37.3726 34.0625 36.4674 34.0625 35.3508V32.9413C34.0625 32.3731 34.523 31.9126 35.0912 31.9126L35.4669 27.3613C35.4875 27.1119 35.5455 26.867 35.6389 26.6348L37.3716 22.3275H24.2175V22.3273Z" fill="#AF7774"/>
<path d="M20.5752 22.3273L19.541 28.2983C19.6848 28.2658 19.8317 28.2491 19.9791 28.2486C20.9974 28.2486 21.8374 29.0021 21.978 29.9815V33.5214C21.978 33.912 22.0906 34.2755 22.2825 34.5846L24.4056 22.3273H20.5752ZM25.058 24.0809C25.058 25.1975 25.9632 26.1027 27.0798 26.1027C28.1965 26.1027 29.1017 25.1975 29.1017 24.0809V23.0234C29.1369 22.7788 29.2168 22.5429 29.3375 22.3273H25.0579V24.0809H25.058Z" fill="#8C5754"/>
<path d="M28.7694 22.923V28.174C28.7694 29.2907 29.6746 30.1959 30.7912 30.1959C31.9078 30.1959 32.813 29.2907 32.813 28.174V27.1165C32.9536 26.1371 33.7937 25.3837 34.8119 25.3837C35.2522 25.3837 35.6589 25.525 35.9904 25.7642L37.3729 22.3274H28.6387C28.7246 22.5142 28.7692 22.7174 28.7694 22.923Z" fill="#8C5754"/>
<path d="M33.1937 20.8617C33.1937 20.08 33.7141 19.4206 34.4271 19.2088H20.2802C19.5673 19.4206 19.0469 20.08 19.0469 20.8617C19.0469 21.6435 19.5673 22.303 20.2802 22.5147H34.4271C33.7141 22.3029 33.1937 21.6435 33.1937 20.8617Z" fill="#E4E5EA"/>
<path d="M39.2338 20.8617C39.2338 19.9489 38.4938 19.2088 37.5809 19.2088H34.2392C33.5262 19.4206 33.0059 20.08 33.0059 20.8617C33.0059 21.6435 33.5262 22.303 34.2392 22.5147H37.5809C38.4938 22.5147 39.2338 21.7746 39.2338 20.8617Z" fill="#F7F7F7"/>
<path d="M19.1189 20.8617C19.1189 19.9489 19.859 19.2088 20.7719 19.2088H10.3736C9.46076 19.2088 8.7207 19.9489 8.7207 20.8617C8.7207 21.7746 9.46076 22.5147 10.3736 22.5147H20.7719C19.859 22.5147 19.1189 21.7746 19.1189 20.8617Z" fill="#D2D3DE"/>
<path d="M40.6007 40.8968C44.535 36.7769 46.9514 31.1952 46.9514 25.0488C46.9514 15.295 40.8665 6.96345 32.286 3.64014C31.9616 5.24708 32.3263 7.38069 35.1032 9.46727C40.6303 13.6203 44.3774 20.1675 40.9113 26.2616C38.0992 31.2059 37.4456 37.8043 40.6007 40.8968ZM7.39952 40.8968C3.46525 36.7769 1.04883 31.1952 1.04883 25.0488C1.04883 15.295 7.13376 6.96345 15.7142 3.64014C16.0386 5.24708 15.6739 7.38069 12.897 9.46727C7.36992 13.6203 3.62281 20.1674 7.08889 26.2616C9.901 31.2059 10.5546 37.8043 7.39952 40.8968Z" fill="#FFE98F"/>
<path d="M32.3021 16.99C33.2881 16.2957 33.3872 14.7384 32.5234 13.5117C31.6596 12.2849 30.1601 11.8532 29.174 12.5475C28.188 13.2418 28.0889 14.7991 28.9527 16.0259C29.8165 17.2526 31.3161 17.6843 32.3021 16.99Z" fill="#F7F7F7"/>
<path d="M30.3262 41.5821C30.9303 41.5821 31.42 41.0924 31.42 40.4883C31.42 39.8843 30.9303 39.3946 30.3262 39.3946C29.7221 39.3946 29.2324 39.8843 29.2324 40.4883C29.2324 41.0924 29.7221 41.5821 30.3262 41.5821Z" fill="#6C5475"/>
<path d="M26.9157 46.5355C27.0468 45.9458 26.675 45.3615 26.0853 45.2305C25.4956 45.0994 24.9113 45.4712 24.7803 46.0609C24.6492 46.6506 25.021 47.2349 25.6107 47.3659C26.2004 47.497 26.7847 47.1252 26.9157 46.5355Z" fill="#6C5475"/>
<path d="M22.3203 44.0229C22.9244 44.0229 23.4141 43.5332 23.4141 42.9291C23.4141 42.3251 22.9244 41.8354 22.3203 41.8354C21.7163 41.8354 21.2266 42.3251 21.2266 42.9291C21.2266 43.5332 21.7163 44.0229 22.3203 44.0229Z" fill="#6C5475"/>
<path d="M18.1211 38.0106C18.7252 38.0106 19.2149 37.5209 19.2149 36.9168C19.2149 36.3127 18.7252 35.823 18.1211 35.823C17.517 35.823 17.0273 36.3127 17.0273 36.9168C17.0273 37.5209 17.517 38.0106 18.1211 38.0106Z" fill="#6C5475"/>
<path d="M25.38 39.4322C25.5225 38.8452 25.1622 38.2538 24.5752 38.1112C23.9882 37.9686 23.3968 38.3289 23.2542 38.916C23.1117 39.503 23.472 40.0944 24.059 40.237C24.646 40.3795 25.2374 40.0192 25.38 39.4322Z" fill="#9982A3"/>
<path d="M18.9512 47.4145C19.5553 47.4145 20.045 46.9248 20.045 46.3207C20.045 45.7167 19.5553 45.227 18.9512 45.227C18.3471 45.227 17.8574 45.7167 17.8574 46.3207C17.8574 46.9248 18.3471 47.4145 18.9512 47.4145Z" fill="#6C5475"/>
</g>
</g>
<defs>
<clipPath id="clip0_1516_28657">
<rect width="48" height="48" rx="8" fill="white"/>
</clipPath>
<clipPath id="clip1_1516_28657">
<rect width="48" height="48" fill="white"/>
</clipPath>
</defs>
</svg>
