<svg width="48" height="48" viewBox="0 0 48 48" fill="none" xmlns="http://www.w3.org/2000/svg">
<g clip-path="url(#clip0_1516_28692)">
<g clip-path="url(#clip1_1516_28692)">
<path d="M48 24C48 30.9569 45.0396 37.2225 40.3103 41.6062C39.6083 42.2573 38.868 42.8657 38.0933 43.4282C34.9812 45.6893 31.3067 47.221 27.3179 47.7718C26.6211 47.8687 25.9203 47.9347 25.2176 47.9696C24.8141 47.9902 24.4083 48 24 48C23.5404 48 23.0841 47.9872 22.6303 47.9608C18.6065 47.7356 14.8477 46.518 11.5935 44.5481C9.9373 43.5457 8.40785 42.3475 7.03819 40.9793C2.68978 36.6357 0 30.6317 0 24C0 15.4688 4.45238 7.97681 11.1595 3.72037C11.4815 3.51563 11.8085 3.31901 12.1403 3.13069C12.141 3.13069 12.141 3.12966 12.1421 3.12966C15.639 1.13747 19.6868 0 24 0C37.255 0 48 10.745 48 24Z" fill="#FFD13D"/>
<path d="M23.2195 22.8058C22.7137 20.2137 22.0077 17.9041 21.1486 15.9998C20.8053 15.2417 20.5057 14.4645 20.2514 13.6721C19.9083 12.6085 19.6479 11.5199 19.4723 10.4162C19.2964 9.30939 19.208 8.19042 19.2079 7.0697V3.12967H11.1587V7.0697C11.1587 9.32195 10.8013 11.5514 10.1135 13.686C9.8596 14.4734 9.56163 15.2458 9.22103 15.9998C8.36078 17.9041 7.65362 20.2138 7.14906 22.8058C6.59566 25.6498 6.28516 28.8343 6.28516 32.1962C6.28516 32.7682 6.295 33.3343 6.31262 33.895C6.391 36.3977 6.64262 38.784 7.03731 40.9794C11.0792 45.0161 16.5511 47.6199 22.6295 47.9608C22.5112 46.087 22.6657 44.1933 23.0635 42.3428C23.6132 39.7852 23.9611 36.9258 24.0558 33.895C24.0735 33.3343 24.0833 32.7682 24.0833 32.1962C24.0833 28.8343 23.7728 25.6498 23.2195 22.8058Z" fill="#65668B"/>
<path d="M11.1587 3.13077V7.06967C11.1587 9.32192 10.8002 11.5514 10.1124 13.686C9.85934 14.4735 9.56173 15.246 9.22103 15.9997C8.36078 17.9041 7.65362 20.2148 7.14906 22.8058C6.59462 25.6498 6.28516 28.8333 6.28516 32.1962C6.28516 32.7681 6.295 33.3343 6.31262 33.894C6.38987 36.3977 6.64262 38.784 7.03731 40.9793C8.40698 42.3475 9.93643 43.5457 11.5926 44.5481C11.5547 43.8116 11.4978 43.0763 11.422 42.3427C11.1604 39.7851 10.9942 36.9258 10.9488 33.894C10.94 33.3343 10.9364 32.7681 10.9364 32.1962C10.9364 28.8333 11.0843 25.6498 11.3477 22.8058C11.5886 20.2148 11.9267 17.9041 12.3371 15.9997C12.502 15.2329 12.644 14.4613 12.763 13.686C13.0915 11.5513 13.2618 9.32192 13.2618 7.06967V3.13077H11.1587Z" fill="#4F5171"/>
<path d="M20.253 13.6725L20.2138 13.686H10.1152C10.803 11.551 11.1611 9.32193 11.1611 7.06931V5.13712H11.1622L13.2635 3.99862L14.865 3.1304L19.21 5.13721V7.0694C19.21 9.31753 19.5681 11.5437 20.253 13.6725Z" fill="#FFE9DA"/>
<path d="M11.1602 3.13003H11.1612L16.4662 1.52859L19.2092 3.13003V5.13684H11.1602L11.1602 3.13003Z" fill="#FCD6BE"/>
<path d="M24.0842 32.1962C24.0842 32.7681 24.0747 33.3343 24.0568 33.894H6.31346C6.29561 33.3282 6.28683 32.7622 6.28712 32.1962C6.28712 28.8337 6.59687 25.6498 7.15027 22.8062H23.22C23.7744 25.6498 24.0842 28.8337 24.0842 32.1962Z" fill="#FF4D3F"/>
<path d="M20.1855 1.57622V3.13031H10.1875V1.57622C10.1875 0.705656 10.8932 0 11.7637 0H18.6093C19.4797 0 20.1855 0.705656 20.1855 1.57622Z" fill="#FF382E"/>
<path d="M20.1856 1.57622V3.13031H13.9063V1.57622C13.9062 0.705656 14.6118 0 15.4823 0H18.6093C19.4798 0 20.1856 0.705656 20.1856 1.57622Z" fill="#FF4D3F"/>
<path d="M11.3485 22.8062H7.15027C6.59686 25.6498 6.28711 28.8337 6.28711 32.1962C6.28711 32.7681 6.29555 33.3343 6.31336 33.894H10.9497C10.9412 33.3343 10.9368 32.7681 10.9368 32.1962C10.9368 28.8337 11.0852 25.6498 11.3485 22.8062Z" fill="#FF382E"/>
<path d="M11.1622 5.13722H11.1611V7.06941C11.1611 9.32156 10.803 11.551 10.1152 13.686H12.7647C13.0932 11.551 13.2635 9.32194 13.2635 7.06931V3.99863L11.1622 5.13722Z" fill="#FCD6BE"/>
<path d="M19.4373 28.3945C19.4373 30.7434 17.5333 32.6473 15.1845 32.6473C12.836 32.6473 10.9316 30.7434 10.9316 28.3945C10.9316 26.0461 12.836 24.142 15.1845 24.142C17.5333 24.142 19.4373 26.0461 19.4373 28.3945ZM44.4334 12.1714V20.205C44.4334 26.4137 41.0184 33.8881 40.3095 41.6063C39.6075 42.2573 38.8671 42.8657 38.0924 43.4282C34.9804 45.6893 31.3059 47.221 27.3171 47.7718C26.6202 47.8687 25.9195 47.9347 25.2168 47.9696V44.302C25.2168 35.6405 20.9643 27.1348 20.9643 20.205V12.1714H44.4334Z" fill="#FFE9DA"/>
<path d="M29.1845 44.302V47.4379C28.5668 47.5739 27.944 47.6853 27.3175 47.7718C26.6206 47.8687 25.9197 47.9347 25.2169 47.9696V44.302C25.2169 35.6405 20.9648 27.1348 20.9648 20.205V12.1714H27.187V20.205C27.187 27.1348 29.1845 35.6404 29.1845 44.302Z" fill="#FCD6BE"/>
<path d="M42.3349 18.472V20.205C42.3349 23.2064 41.4209 26.6968 40.454 30.3929C39.359 34.5805 38.2275 38.9045 38.0942 43.4282C35.4738 45.3314 32.4557 46.7186 29.1857 47.4379C29.1645 47.4426 29.1436 47.4474 29.1224 47.4514C29.0319 47.472 28.9418 47.4906 28.8517 47.5082C28.7324 47.5338 28.6119 47.5572 28.4925 47.5796L28.3336 47.6093C28.2797 47.6188 28.227 47.6287 28.1732 47.6374C28.124 47.6463 28.0739 47.655 28.0252 47.6631C28.0095 47.666 27.9937 47.669 27.978 47.6708C27.8831 47.6876 27.7872 47.7023 27.692 47.7169C27.5686 47.7363 27.4433 47.7543 27.3188 47.7718V44.302C27.3188 39.46 26.1128 34.8502 24.9461 30.3929C23.9793 26.6968 23.0664 23.2064 23.0664 20.205V18.472H42.3349Z" fill="#65668B"/>
<path d="M29.1838 44.302V47.4379C29.1625 47.4425 29.1416 47.4473 29.1204 47.4514C29.03 47.472 28.9399 47.4905 28.8498 47.5082C28.7304 47.5338 28.61 47.5572 28.4905 47.5796L28.3316 47.6092C28.2778 47.6188 28.225 47.6286 28.1712 47.6374C28.1221 47.6463 28.0719 47.655 28.0233 47.663C28.0075 47.666 27.9918 47.669 27.976 47.6707C27.8811 47.6876 27.7852 47.7022 27.6901 47.7169C27.5666 47.7363 27.4414 47.7543 27.3169 47.7718V44.302C27.3169 39.4599 26.1109 34.8501 24.9441 30.3929C23.9774 26.6968 23.0645 23.2064 23.0645 20.205V18.472H27.1865V20.205C27.1865 27.1347 29.1838 35.6404 29.1838 44.302ZM36.1323 26.6719C36.1323 27.2194 35.6881 27.6635 35.1406 27.6635C34.5927 27.6635 34.1489 27.2194 34.1489 26.6719C34.1489 26.124 34.5927 25.6802 35.1406 25.6802C35.6881 25.6802 36.1323 26.124 36.1323 26.6719ZM32.3486 31.6308C32.3486 32.1785 31.9047 32.6225 31.3568 32.6225C30.8093 32.6225 30.3651 32.1785 30.3651 31.6308C30.3651 31.083 30.8094 30.639 31.3568 30.639C31.9047 30.639 32.3486 31.0829 32.3486 31.6308ZM32.179 41.5836C32.179 42.1314 31.7348 42.5753 31.187 42.5753C30.6395 42.5753 30.1953 42.1314 30.1953 41.5836C30.1953 41.0359 30.6395 40.5919 31.187 40.5919C31.7348 40.5919 32.179 41.0358 32.179 41.5836ZM36.4673 35.1485C36.4673 35.696 36.0235 36.1402 35.4756 36.1402C34.9278 36.1402 34.484 35.696 34.484 35.1485C34.484 34.6007 34.9278 34.1569 35.4756 34.1569C36.0235 34.1569 36.4673 34.6007 36.4673 35.1485Z" fill="#4F5171"/>
<path d="M28.786 22.028C28.786 22.5755 28.3417 23.0196 27.7942 23.0196C27.2464 23.0196 26.8025 22.5755 26.8025 22.028C26.8025 21.4801 27.2464 21.0363 27.7942 21.0363C28.3417 21.0363 28.786 21.4801 28.786 22.028ZM36.4672 21.5332C36.4672 22.081 36.0234 22.5249 35.4755 22.5249C34.9276 22.5249 34.4838 22.081 34.4838 21.5332C34.4838 20.9855 34.9276 20.5415 35.4755 20.5415C36.0234 20.5415 36.4672 20.9854 36.4672 21.5331V21.5332ZM16.1238 39.1527C16.1238 39.7006 15.68 40.1444 15.1321 40.1444C14.5846 40.1444 14.1404 39.7006 14.1404 39.1527C14.1404 38.6048 14.5846 38.161 15.1321 38.161C15.68 38.161 16.1238 38.6048 16.1238 39.1527ZM21.068 37.4469C21.068 37.9947 20.6238 38.4386 20.0763 38.4386C19.5284 38.4386 19.0846 37.9947 19.0846 37.4469C19.0846 36.8994 19.5284 36.4551 20.0763 36.4551C20.6238 36.4551 21.068 36.8994 21.068 37.4469ZM18.7188 42.8994C18.7188 43.4473 18.2749 43.8911 17.7271 43.8911C17.1793 43.8911 16.7354 43.4472 16.7354 42.8994C16.7354 42.3516 17.1792 41.9077 17.7271 41.9077C18.275 41.9077 18.7188 42.3515 18.7188 42.8994ZM14.9542 17.819C14.9542 18.3665 14.5103 18.8107 13.9624 18.8107C13.4145 18.8107 12.9707 18.3665 12.9707 17.819C12.9707 17.2713 13.4146 16.8274 13.9624 16.8274C14.5102 16.8274 14.9542 17.2713 14.9542 17.819ZM18.5305 19.7559C18.5305 20.3038 18.0864 20.7477 17.5389 20.7477C16.991 20.7477 16.5472 20.3038 16.5472 19.7559C16.5472 19.208 16.991 18.7642 17.5389 18.7642C18.0864 18.7642 18.5305 19.2081 18.5305 19.7559Z" fill="#4F5171"/>
</g>
</g>
<defs>
<clipPath id="clip0_1516_28692">
<rect width="48" height="48" rx="8" fill="white"/>
</clipPath>
<clipPath id="clip1_1516_28692">
<rect width="48" height="48" fill="white"/>
</clipPath>
</defs>
</svg>
