<svg width="48" height="48" viewBox="0 0 48 48" fill="none" xmlns="http://www.w3.org/2000/svg">
<g clip-path="url(#clip0_1516_28713)">
<g clip-path="url(#clip1_1516_28713)">
<path d="M46.9469 24.5272C46.9467 36.4345 38.0806 46.2708 26.5899 47.795C26.0606 47.8652 25.6056 47.4216 25.6582 46.8902C25.735 46.1129 25.7734 45.3323 25.7734 44.5512C25.7736 31.5867 15.2025 21.0442 2.23813 21.0779C2.10534 21.0783 1.97284 21.0798 1.84062 21.0822C0.995782 21.0984 0.362105 20.3157 0.542608 19.4902C2.84977 8.93757 12.2556 1.03999 23.5036 1.05388C36.4517 1.06988 46.9471 11.5791 46.9469 24.5272Z" fill="#5B3374"/>
<path d="M35.6075 36.6617C35.5052 36.764 35.4017 36.865 35.2971 36.9649C24.9933 46.7944 9.88453 31.9132 19.541 21.447C19.677 21.2993 19.8161 21.1543 19.958 21.0122C28.159 12.8112 37.5156 7.9975 44.1448 7.95151C44.2369 8.03478 44.3268 8.12033 44.4145 8.20808C49.8397 13.6333 45.8967 26.3724 35.6075 36.6617Z" fill="#F19B0B"/>
<path d="M38.51 14.0789C38.4585 13.7183 38.7395 13.3954 39.1037 13.3954H47.4003C47.7645 13.3954 48.0455 13.7182 47.994 14.0789C47.6623 16.4009 45.6656 18.1858 43.252 18.1858C40.8384 18.1858 38.8417 16.4008 38.51 14.0789Z" fill="#AB2538"/>
<path d="M38.5086 14.0685C38.4639 13.7121 38.7429 13.3954 39.1037 13.3954H47.4002C47.761 13.3954 48.04 13.7121 47.9953 14.0685C46.898 15.4837 45.1814 16.3946 43.2519 16.3946C41.3225 16.3947 39.6059 15.4838 38.5086 14.0685Z" fill="#F52C2C"/>
<path d="M45.4497 14.1483C45.099 13.7975 44.6724 13.6554 44.497 13.8308C44.3216 14.0062 44.4638 14.4327 44.8145 14.7835C45.1653 15.1344 45.5918 15.2764 45.7672 15.101C45.9428 14.9256 45.8006 14.4991 45.4497 14.1483Z" fill="#AB2538"/>
<path d="M44.1137 3.36461C45.6103 4.86123 45.0036 7.89433 42.7588 10.1393C40.5139 12.3842 37.4807 12.9909 35.9841 11.4942C34.4874 9.99761 35.0941 6.96451 37.339 4.71953C39.584 2.47464 42.6171 1.86798 44.1137 3.36461ZM31.9412 24.8733C28.9304 23.866 25.9453 24.6765 25.2738 26.6837C24.6023 28.6909 26.4986 31.1346 29.5093 32.1419C32.52 33.1492 35.5052 32.3387 36.1767 30.3315C36.8483 28.3244 34.952 25.8806 31.9412 24.8733Z" fill="#06995F"/>
<path d="M42.0707 5.14185C42.2454 5.02745 42.4509 5.23296 42.3366 5.40772C41.8423 6.16278 41.1791 6.97677 40.3877 7.76825C39.5963 8.55972 38.7823 9.2229 38.0272 9.71718C37.8524 9.83157 37.647 9.62607 37.7613 9.45131C38.2556 8.69625 38.9188 7.88226 39.7102 7.09078C40.5015 6.29931 41.3156 5.63603 42.0707 5.14185ZM33.6747 29.2962C33.855 29.4015 33.7629 29.6771 33.5554 29.6527C32.6591 29.5473 31.6348 29.317 30.5733 28.9619C29.5118 28.6068 28.5551 28.1743 27.7759 27.7191C27.5956 27.6138 27.6877 27.3382 27.8952 27.3626C28.7915 27.468 29.8158 27.6983 30.8773 28.0534C31.9388 28.4085 32.8955 28.841 33.6747 29.2962Z" fill="#006E42"/>
<path d="M44.9347 17.7125C44.9347 19.829 43.0044 21.5448 40.6233 21.5448C40.3692 21.5448 40.1203 21.5252 39.8782 21.4877C40.0547 21.9661 40.1448 22.472 40.1442 22.982C40.1442 25.3631 38.214 27.2933 35.8329 27.2933C33.4517 27.2933 31.5215 25.3631 31.5215 22.982C31.5215 20.6008 33.4517 18.6706 35.8329 18.6706C36.0463 18.6706 36.2561 18.6862 36.4613 18.7161C36.3621 18.3908 36.3118 18.0526 36.3119 17.7125C36.3119 16.8163 36.6581 15.992 37.2379 15.3392C36.5435 14.5739 36.1203 13.5579 36.1203 12.443C36.1203 10.0619 38.0505 8.13165 40.4317 8.13165C42.8128 8.13165 44.743 10.0619 44.743 12.443C44.7445 13.4182 44.414 14.3648 43.8057 15.1271C44.5069 15.8087 44.9347 16.7162 44.9347 17.7125Z" fill="#08B772"/>
<path d="M33.4711 19.8719L36.222 27.8836C36.3331 28.2073 36.0788 28.5399 35.7372 28.5172L28.194 28.0161C27.8307 27.9919 27.6261 27.5873 27.8219 27.2805L32.6141 19.7698C32.8299 19.4317 33.3409 19.4925 33.4711 19.8719ZM37.0467 8.77374L44.5108 15.6064C44.8124 15.8825 44.7354 16.3767 44.3642 16.5481L36.1647 20.3329C35.7698 20.5152 35.3239 20.2077 35.354 19.7738L36.0894 9.1563C36.1226 8.67831 36.6933 8.45019 37.0467 8.77374Z" fill="#FDE803"/>
<path d="M34.2092 20.3122C34.1577 19.9516 34.4387 19.6286 34.803 19.6286H43.0995C43.4638 19.6286 43.7448 19.9515 43.6932 20.3122C43.3615 22.6341 41.3648 24.4191 38.9512 24.4191C36.5377 24.4191 34.541 22.634 34.2092 20.3122Z" fill="#AB2538"/>
<path d="M34.2078 20.3018C34.1631 19.9454 34.4421 19.6286 34.8029 19.6286H43.0994C43.4603 19.6286 43.7392 19.9454 43.6945 20.3018C42.5972 21.717 40.8806 22.6279 38.9511 22.6279C37.0218 22.6279 35.3051 21.717 34.2078 20.3018Z" fill="#F52C2C"/>
<path d="M39.4003 21.1282C39.4003 21.6243 39.1992 22.0265 38.9511 22.0265C38.7031 22.0265 38.502 21.6243 38.502 21.1282C38.502 20.6322 38.7031 20.23 38.9511 20.23C39.1992 20.23 39.4003 20.6322 39.4003 21.1282ZM41.15 20.3816C40.7992 20.0309 40.3727 19.8887 40.1973 20.064C40.0219 20.2393 40.164 20.6659 40.5148 21.0167C40.8655 21.3676 41.2921 21.5097 41.4675 21.3343C41.6429 21.159 41.5008 20.7324 41.15 20.3816Z" fill="#AB2538"/>
<path d="M39.0381 2.43535C44.4633 7.8606 40.5203 20.5998 30.231 30.889C25.9445 35.1755 21.233 38.3604 16.8021 40.2256C9.6349 36.2076 4.79102 28.5378 4.79102 19.7365C4.79102 19.2006 4.80903 18.6688 4.84438 18.1419C6.44256 15.7934 8.36601 13.461 10.5845 11.2425C20.8737 0.953196 33.6129 -2.98989 39.0381 2.43535Z" fill="#D98800"/>
<path d="M39.0376 2.43534C44.4628 7.86059 40.5197 20.5997 30.2305 30.889C26.8706 34.2489 23.2494 36.9321 19.707 38.8333C13.7326 35.85 9.20878 30.3938 7.47656 23.8056C9.42176 20.9182 11.8077 18.0127 14.5809 15.2395C22.782 7.03846 32.1385 2.22476 38.7679 2.17886C38.8599 2.26213 38.9498 2.34765 39.0376 2.43534Z" fill="#F4AA39"/>
<path d="M31.5185 23.3692C32.0798 23.9304 32.0798 24.8403 31.5185 25.4016C30.9573 25.9628 30.0474 25.9628 29.4861 25.4016L16.6143 12.5297C16.053 11.9685 16.053 11.0586 16.6143 10.4973C17.1755 9.93609 18.0854 9.93609 18.6467 10.4973L31.5185 23.3692ZM25.4213 7.7874C24.86 7.22615 23.9502 7.22615 23.3889 7.7874C22.8277 8.34865 22.8277 9.25854 23.3889 9.81978L32.196 18.6269C32.7572 19.1881 33.6671 19.1881 34.2284 18.6269C34.7896 18.0656 34.7896 17.1557 34.2284 16.5945L25.4213 7.7874ZM37.6157 10.4972L31.5185 4.4C30.9573 3.83875 30.0474 3.83875 29.4861 4.4C28.9249 4.96124 28.9249 5.87114 29.4861 6.43238L35.5833 12.5296C36.1445 13.0909 37.0544 13.0909 37.6157 12.5296C38.1769 11.9684 38.1769 11.0585 37.6157 10.4972Z" fill="#E55920"/>
<path d="M35.5151 34.661L36.9424 36.0883C37.3165 36.4625 37.3165 37.0691 36.9424 37.4433L26.5911 47.7947C25.5304 47.9352 24.4615 48.0037 23.3916 47.9998C10.198 47.955 -0.302518 37.1563 0.00665607 23.9663C0.0414707 22.4534 0.222205 20.9475 0.546345 19.4694L9.75746 10.2583C10.1316 9.88416 10.7382 9.88416 11.1124 10.2583L12.7569 11.9028C12.8288 11.9747 12.8692 12.0722 12.8692 12.1738V16.2571H16.9526C17.0542 16.2571 17.1517 16.2975 17.2235 16.3694L18.8542 18.0001C18.926 18.0719 18.9664 18.1694 18.9665 18.271V22.3544H23.0498C23.1515 22.3544 23.2489 22.3947 23.3208 22.4667L24.9514 24.0973C25.0233 24.1692 25.0637 24.2666 25.0637 24.3683V28.4516H29.1471C29.2487 28.4516 29.3461 28.492 29.418 28.5639L31.0487 30.1946C31.1205 30.2664 31.1609 30.3639 31.161 30.4655V34.5489H35.2443C35.2946 34.5488 35.3444 34.5587 35.3908 34.578C35.4373 34.5972 35.4795 34.6254 35.5151 34.661Z" fill="#FDF061"/>
<path d="M12.7253 11.8712L9.982e-05 24.5964C-0.00497802 22.8357 0.183765 21.1201 0.546208 19.4695L9.75732 10.2584C10.1315 9.88425 10.7381 9.88425 11.1122 10.2584L12.7253 11.8712ZM24.9512 24.0972L24.1359 23.2819L6.58654 40.8312C7.33845 41.6099 8.14303 42.3359 8.99459 43.0041L25.0635 26.9352V24.3683C25.0635 24.2666 25.0231 24.1691 24.9512 24.0972ZM1.34094 32.3661L17.2805 16.4264L17.1111 16.257H12.869L0.378447 28.7478C0.601706 29.9777 0.923575 31.1877 1.34094 32.3661ZM18.9662 22.3544V19.3058L2.73629 35.5357C3.25733 36.5149 3.84704 37.4559 4.50099 38.3518L20.4983 22.3544H18.9662ZM29.1467 28.4515H28.112L11.7158 44.8477C12.7055 45.4217 13.736 45.9222 14.799 46.3453L30.9991 30.1451L29.4177 28.5637C29.3458 28.4919 29.2484 28.4515 29.1467 28.4515ZM35.4027 34.5488H31.1606L18.2847 47.4247C19.6108 47.7235 20.9604 47.9067 22.3182 47.9721L35.5721 34.7182L35.4027 34.5488Z" fill="#FDE803"/>
</g>
</g>
<defs>
<clipPath id="clip0_1516_28713">
<rect width="48" height="48" rx="8" fill="white"/>
</clipPath>
<clipPath id="clip1_1516_28713">
<rect width="48" height="48" fill="white"/>
</clipPath>
</defs>
</svg>
