<svg width="48" height="48" viewBox="0 0 48 48" fill="none" xmlns="http://www.w3.org/2000/svg">
<g clip-path="url(#clip0_1516_28596)">
<g clip-path="url(#clip1_1516_28596)">
<path d="M47.2559 29.9408C47.2781 29.8552 47.2994 29.769 47.3206 29.6826C47.2997 29.769 47.2778 29.8549 47.2559 29.9408Z" fill="#AFE6FF"/>
<path d="M24.0007 0C14.7648 0 9.07608 5.20913 9.06036 5.21798C8.70394 6.86325 8.08398 9.25092 8.08398 11.0029C8.08398 24.2578 19.2617 35.0003 32.5165 35.0003C38.1652 35.0003 43.355 32.3703 47.4548 29.1048C47.4716 29.0025 48.0007 26.8952 48.0007 24C48.0007 10.7451 37.2556 0 24.0007 0Z" fill="#5BD89D"/>
<path d="M47.4541 29.1049C43.3545 32.3704 38.1625 34.3228 32.5138 34.3228C19.2589 34.3228 8.51379 23.5777 8.51379 10.3228C8.51379 8.57083 8.70325 6.86335 9.05967 5.21799L9.05807 5.2193C3.53854 9.61648 0 16.3946 0 24C0 37.2549 10.7451 48 24 48C35.204 48 44.612 40.3216 47.2558 29.9408C47.2777 29.8549 47.2997 29.769 47.3206 29.6826C47.3306 29.6416 47.4211 29.257 47.4541 29.1049Z" fill="#4AC688"/>
<path d="M30.4847 37.9559H29.0078L33.1034 22.8706H41.3112C43.5538 22.8706 45.1837 24.9992 44.5956 27.1654C42.8707 33.5188 37.0681 37.9559 30.4847 37.9559ZM34.8308 25.1294L31.9865 35.6054C36.9157 35.0005 41.09 31.4563 42.4155 26.5736C42.6132 25.8459 42.0661 25.1294 41.3112 25.1294H34.8308Z" fill="white"/>
<path d="M17.1133 21.9928V25.4132H38.1522C38.341 24.2828 38.4357 23.1388 38.4354 21.9928H17.1133Z" fill="white"/>
<path d="M17.6185 25.4132C17.4297 24.2828 17.3351 23.1388 17.3356 21.9928H8.24219C8.24187 23.1388 8.33659 24.2828 8.52539 25.4132H17.6185Z" fill="#AFE6FF"/>
<path d="M19.1994 14.0318C19.1994 17.028 15.6967 19.4568 15.6967 19.4568C15.6967 19.4568 12.9727 17.028 12.9727 14.0318C12.9727 11.0357 15.6967 8.60687 15.6967 8.60687C15.6967 8.60687 19.1994 11.0358 19.1994 14.0318Z" fill="#51C422"/>
<path d="M12.1934 14.0318C12.1934 17.028 15.696 19.4568 15.696 19.4568V8.60696C15.696 8.60696 12.1934 11.0358 12.1934 14.0318Z" fill="#37AA1B"/>
<path d="M13.0862 11.9673C15.2048 14.0859 14.4454 18.2801 14.4454 18.2801C14.4454 18.2801 11.0945 18.3241 8.97588 16.2055C6.8573 14.087 6.77344 10.6081 6.77344 10.6081C6.77344 10.6081 10.9676 9.84875 13.0862 11.9673Z" fill="#51C422"/>
<path d="M8.13225 16.9208C10.2508 19.0394 14.445 18.2801 14.445 18.2801L6.773 10.6081C6.773 10.6081 6.01366 14.8023 8.13225 16.9208Z" fill="#37AA1B"/>
<path d="M24.6298 3.50278C25.0111 4.97609 24.0962 5.24235 24.2424 6.76442C24.4281 8.25572 25.3094 8.14485 25.3355 10.0263C25.3123 11.8777 24.4227 11.8483 24.2443 13.2879C24.1014 14.811 25.0117 15.084 24.6298 16.5496C24.1365 14.8399 23.3078 15.1035 23.1328 13.2879C23.0094 11.5209 23.9007 11.4756 23.924 10.0261C23.904 8.60122 23.0121 8.51087 23.1349 6.76442C23.3143 4.93581 24.1374 5.21986 24.6298 3.50278Z" fill="white"/>
<path d="M28.0465 40.7382H18.628C17.9134 40.7382 17.334 40.1589 17.334 39.4442V38.1257H29.3406V39.4442C29.3406 40.159 28.7612 40.7382 28.0465 40.7382Z" fill="#AFE6FF"/>
<path d="M17.3613 25.1711C17.5179 30.7844 20.7421 35.8596 25.7566 38.3871C26.1913 38.6062 26.4536 38.7387 26.4536 38.7387C27.8701 38.7387 29.2594 38.3426 30.4591 37.5894C34.4427 35.0883 37.3571 30.5545 38.1912 25.1712H17.3613V25.1711Z" fill="#D4F1FF"/>
<path d="M16.2164 37.5893C17.4161 38.3425 18.8054 38.7386 20.222 38.7386H26.4528C26.7756 38.7386 27.0969 38.717 27.415 38.6763C22.3699 36.595 18.5527 31.4634 17.5777 25.1711H8.48438C9.24456 30.0762 11.925 34.8951 16.2164 37.5893Z" fill="#D4F2FF"/>
<path d="M15.123 39.6775V40.2776C15.123 41.2664 15.9246 42.068 16.9134 42.068H36.044C37.3643 42.068 38.4346 40.9977 38.4346 39.6774H15.123V39.6775Z" fill="white"/>
<path d="M15.3144 39.6775H8.24219C8.24219 40.9977 9.31249 42.068 10.6327 42.068H17.7049C16.3847 42.068 15.3144 40.9977 15.3144 39.6775Z" fill="#AFE6FF"/>
</g>
</g>
<defs>
<clipPath id="clip0_1516_28596">
<rect width="48" height="48" rx="8" fill="white"/>
</clipPath>
<clipPath id="clip1_1516_28596">
<rect width="48" height="48" fill="white"/>
</clipPath>
</defs>
</svg>
