<svg width="48" height="48" viewBox="0 0 48 48" fill="none" xmlns="http://www.w3.org/2000/svg">
<g clip-path="url(#clip0_1516_28570)">
<g clip-path="url(#clip1_1516_28570)">
<path d="M48 24C48 37.2544 37.2544 48 24 48C20.9616 48 18.0553 47.4356 15.3797 46.4044C14.1853 45.945 14.9919 43.1438 13.8988 42.5073C13.287 42.1515 12.6914 41.7686 12.1138 41.3598C11.1239 40.6604 10.1884 39.8869 9.31537 39.046C8.21006 37.9829 5.25187 39.0638 4.36688 37.8066C1.61625 33.9019 0 29.1394 0 24C0 10.7456 10.7456 0 24 0C37.2544 0 48 10.7456 48 24Z" fill="#E26952"/>
<path d="M31.8136 0H27.8045C27.5921 0 27.3884 0.084381 27.2382 0.23458C27.088 0.384779 27.0036 0.588493 27.0036 0.800906V2.30747H32.6146V0.800906C32.6145 0.588492 32.5301 0.384793 32.3799 0.234602C32.2297 0.0844108 32.026 2.48525e-05 31.8136 0ZM40.4147 35.2178H28.3585C27.551 35.2178 26.8965 34.5632 26.8965 33.7557V30.1081H41.8766V33.7557C41.8766 34.5632 41.222 35.2178 40.4147 35.2178Z" fill="#FCF9F0"/>
<path d="M32.1246 35.2178H28.3584C27.5508 35.2178 26.897 34.5639 26.897 33.7564V30.1089H30.6623V33.7564C30.6623 34.5639 31.317 35.2178 32.1246 35.2178ZM25.7885 0.908451L42.8872 2.59033C43.792 2.67929 44.4819 3.44026 44.4819 4.34954V5.93383H24.373V2.19142C24.373 1.42951 25.0302 0.833826 25.7885 0.908451Z" fill="#EDEAE2"/>
<path d="M45.9721 7.03247L45.5479 11.4797L43.6468 31.3887C43.5291 32.6253 42.491 33.5691 41.2485 33.5691H27.5263C26.2839 33.5691 25.2458 32.6253 25.128 31.3887L23.227 11.4797L22.8027 7.03247H45.9721Z" fill="#5BD89D"/>
<path d="M45.9721 7.03247L45.5479 11.4797H23.227L22.8027 7.03247H45.9721Z" fill="#4AC688"/>
<path d="M31.3694 33.5694H27.5263C26.2839 33.5694 25.2458 32.6257 25.128 31.3891L22.8027 7.03275H29.2912L30.3137 31.3891C30.3654 32.6257 30.8227 33.5694 31.3694 33.5694Z" fill="#4AC688"/>
<path d="M45.5839 4.56018H23.1918C22.9981 4.56019 22.8105 4.62787 22.6614 4.75151C22.5123 4.87515 22.411 5.04699 22.3751 5.23734L21.6943 8.84962C21.5979 9.36121 21.9903 9.83456 22.511 9.83456H46.2647C46.7854 9.83456 47.1777 9.36131 47.0814 8.84962L46.4006 5.23724C46.3647 5.04691 46.2634 4.87509 46.1143 4.75147C45.9652 4.62785 45.7776 4.56019 45.5839 4.56018Z" fill="#FCF9F0"/>
<path d="M27.9824 8.84999C27.8861 9.36177 28.2782 9.83464 28.7987 9.83464H22.5106C21.9901 9.83464 21.598 9.36177 21.6943 8.84999L22.3754 5.23752C22.4111 5.04714 22.5122 4.87524 22.6613 4.75157C22.8103 4.62791 22.998 4.56026 23.1917 4.56036H29.4798C29.286 4.56039 29.0983 4.62806 28.9491 4.75168C28.7999 4.87531 28.6986 5.04714 28.6625 5.23752L27.9824 8.84999Z" fill="#EDEAE2"/>
<path d="M39.9237 28.5947C36.9076 29.3993 33.5558 28.6209 31.1897 26.2548C30.7598 25.8253 30.3742 25.3536 30.0387 24.8469C28.5891 22.6579 28.194 19.9784 28.8498 17.5207C29.1374 17.4441 29.4287 17.3817 29.7225 17.3339C32.4983 16.8786 35.4433 17.7192 37.5848 19.8596C39.951 22.2269 40.7293 25.5776 39.9237 28.5947Z" fill="#78757A"/>
<path d="M30.0387 24.8469C28.5891 22.6579 28.194 19.9784 28.8498 17.5207C29.1374 17.4441 29.4287 17.3817 29.7225 17.3339L30.0387 24.8469ZM39.9237 29.3731C39.8215 29.3732 39.7202 29.3531 39.6258 29.314C39.5313 29.2749 39.4455 29.2175 39.3733 29.1451L31.991 21.7627C31.845 21.6168 31.763 21.4188 31.763 21.2124C31.763 21.006 31.845 20.808 31.991 20.662C32.1369 20.5161 32.3349 20.4341 32.5413 20.4341C32.7478 20.4341 32.9457 20.5161 33.0917 20.662L40.474 28.0444C40.5463 28.1166 40.6037 28.2024 40.6428 28.2969C40.6819 28.3913 40.7021 28.4925 40.7021 28.5947C40.7021 28.6969 40.6819 28.7982 40.6428 28.8926C40.6037 28.987 40.5463 29.0728 40.474 29.1451C40.4019 29.2175 40.3161 29.2749 40.2216 29.314C40.1272 29.3531 40.026 29.3732 39.9237 29.3731Z" fill="#5A565E"/>
<path d="M16.7369 11.1871H20.7459C20.9583 11.1871 21.162 11.2715 21.3122 11.4217C21.4624 11.5719 21.5468 11.7756 21.5468 11.988V13.4946H15.9359V11.988C15.9359 11.7756 16.0203 11.5719 16.1705 11.4217C16.3207 11.2715 16.5244 11.1871 16.7369 11.1871ZM21.5722 41.295V44.9428C21.5722 45.75 20.9169 46.4044 20.1097 46.4044H15.38C14.1928 45.9477 13.0442 45.3965 11.945 44.7563C11.3319 44.4 12.9958 44.0166 12.4192 43.6088C11.4283 42.9084 12.4793 42.135 11.6074 41.295H21.5722Z" fill="#FCF9F0"/>
<path d="M22.7617 12.0955L5.66305 13.7774C4.75817 13.8664 4.06836 14.6273 4.06836 15.5366V17.1209H24.1771V13.3786C24.1771 12.6166 23.5199 12.0209 22.7617 12.0955Z" fill="#EDEAE2"/>
<path d="M25.6655 18.2194L25.2417 22.6669L23.3405 42.5756C23.2223 43.8122 22.1845 44.7562 20.9423 44.7562H11.9442C11.3324 44.4005 10.7368 44.0176 10.1592 43.6087C7.91145 42.0193 5.95224 40.0569 4.36641 37.8065L2.92078 22.6669L2.49609 18.2194H25.6655Z" fill="#FFDD33"/>
<path d="M25.6655 18.2196L25.2412 22.6668H2.92031L2.49609 18.2196H25.6655Z" fill="#FFBF4D"/>
<path d="M10.1592 43.6087C7.91145 42.0193 5.95224 40.0569 4.36641 37.8066L2.49609 18.2203H8.98453L10.0073 42.5766C10.0223 42.9534 10.0767 43.3041 10.1592 43.6087Z" fill="#FFBF4D"/>
<path d="M25.2773 15.7473H2.88516C2.69146 15.7473 2.50384 15.815 2.35473 15.9386C2.20562 16.0623 2.10438 16.2341 2.0685 16.4244L1.38769 20.0368C1.29122 20.5484 1.68366 21.0218 2.20435 21.0218H25.9581C26.4788 21.0218 26.8711 20.5485 26.7747 20.0368L26.0939 16.4244C26.058 16.2341 25.9568 16.0622 25.8077 15.9386C25.6586 15.8149 25.471 15.7473 25.2773 15.7473Z" fill="#FCF9F0"/>
<path d="M7.67574 20.0371C7.57946 20.5489 7.97152 21.0217 8.49202 21.0217H2.20393C1.68343 21.0217 1.29137 20.5489 1.38765 20.0371L2.06874 16.4246C2.10442 16.2342 2.20556 16.0623 2.35463 15.9387C2.5037 15.815 2.69133 15.7474 2.88502 15.7475H9.17312C8.97936 15.7475 8.79168 15.8152 8.64249 15.9388C8.49329 16.0624 8.39193 16.2342 8.3559 16.4246L7.67574 20.0371Z" fill="#EDEAE2"/>
<path d="M15.1542 38.4341C13.2891 38.6481 11.3491 38.041 9.91883 36.6109C9.86115 36.5534 9.8047 36.4947 9.74951 36.4348C8.43992 35.0241 7.88923 33.1639 8.09455 31.3746C8.18501 30.5826 8.79795 30.0632 9.47801 29.9736C9.93626 29.9114 10.4256 30.0475 10.8061 30.428L16.1017 35.7227C17.0455 36.6672 16.4803 38.2823 15.1542 38.4341ZM12.0605 29.1728L17.356 34.4684C18.2999 35.4123 19.9152 34.8471 20.0675 33.521C20.2816 31.6564 19.6739 29.7156 18.2435 28.2853C16.8132 26.855 14.8725 26.2473 13.0079 26.4614C11.6819 26.6136 11.1167 28.2291 12.0605 29.1728Z" fill="#E26952"/>
<path d="M9.74951 36.4347C8.43992 35.024 7.88923 33.1638 8.09455 31.3746C8.18501 30.5826 8.79795 30.0631 9.47801 29.9736L9.74951 36.4347Z" fill="#D85341"/>
</g>
</g>
<defs>
<clipPath id="clip0_1516_28570">
<rect width="48" height="48" rx="8" fill="white"/>
</clipPath>
<clipPath id="clip1_1516_28570">
<rect width="48" height="48" fill="white"/>
</clipPath>
</defs>
</svg>
