<svg width="97" height="66" viewBox="0 0 97 66" fill="none" xmlns="http://www.w3.org/2000/svg">
<g opacity="0.18">
<path d="M64 65C81.6731 65 96 50.6731 96 33C96 15.3269 81.6731 1 64 1C46.3269 1 32 15.3269 32 33C32 50.6731 46.3269 65 64 65Z" stroke="url(#paint0_linear_1102_3738)" stroke-miterlimit="10"/>
<path d="M64 65C81.6731 65 96 50.6731 96 33C96 15.3269 81.6731 1 64 1C46.3269 1 32 15.3269 32 33C32 50.6731 46.3269 65 64 65Z" fill="url(#paint1_linear_1102_3738)"/>
<g opacity="0.5">
<path d="M60.667 45.7371C58.6055 45.1957 56.6752 44.2421 54.9925 42.9339C53.5422 41.7534 52.3781 40.2596 51.5879 38.5646L55.7491 34.7817C56.4931 36.2906 57.5132 37.6469 58.7566 38.7802C59.823 39.6963 61.0747 40.3712 62.4261 40.7587C63.0099 40.9344 63.6171 41.0199 64.2267 41.0122C64.7214 41.0155 65.2077 40.8848 65.634 40.6339C66.0108 40.3889 66.281 40.0105 66.3906 39.5747C66.4889 39.2387 66.4889 38.8816 66.3906 38.5457C66.2879 38.198 66.1154 37.8749 65.8837 37.5962C65.6058 37.2668 65.2952 36.9664 64.9568 36.6996C64.5721 36.393 64.1691 36.1101 63.7501 35.8522C63.315 35.5874 62.8649 35.3378 62.3996 35.0956C60.9056 34.342 59.5345 33.3662 58.3329 32.2017C57.3953 31.2831 56.7246 30.1274 56.3922 28.8576C56.1035 27.5771 56.1596 26.243 56.5549 24.9914C56.8523 23.9235 57.4159 22.9486 58.1929 22.1579C58.9716 21.373 59.904 20.7574 60.9318 20.3497C62.0252 19.9212 63.1851 19.6869 64.3591 19.6574C65.6045 19.6215 66.8478 19.781 68.0437 20.1303C69.8809 20.6283 71.6091 21.4648 73.1394 22.5968C74.5595 23.6901 75.7219 25.0823 76.544 26.6748L72.8027 30.1021C72.177 28.9111 71.3068 27.8657 70.2492 27.0342C69.2072 26.2241 68.0193 25.6217 66.75 25.26C66.1385 25.0679 65.4991 24.9797 64.8585 24.9989C64.3738 25.0125 63.9002 25.1478 63.4815 25.3924C63.1077 25.625 62.837 25.9918 62.7249 26.4176C62.6033 26.7899 62.6235 27.1941 62.7816 27.5524C62.9587 27.94 63.2078 28.2905 63.5155 28.5852C63.8775 28.9522 64.2798 29.2771 64.7147 29.5536C65.2015 29.8642 65.7069 30.1446 66.2279 30.3934C67.3591 30.9711 68.4343 31.6525 69.4396 32.4287C70.3055 33.0938 71.0701 33.8814 71.7094 34.7665C72.2813 35.5643 72.6689 36.4791 72.8443 37.4449C73.0199 38.4719 72.9564 39.5256 72.6589 40.5242C72.2612 42.0862 71.3825 43.4837 70.1471 44.519C68.9349 45.4787 67.4771 46.0778 65.9404 46.2478C64.1662 46.4391 62.3715 46.2653 60.667 45.7371ZM57.7276 47.9804L62.8497 31.7137L65.3692 33.7035L61.3593 49.051L57.7276 47.9804ZM66.2279 33.9721L63.7047 31.9823L67.5444 17.2288L71.176 18.2766L66.2279 33.9721Z" fill="url(#paint2_linear_1102_3738)"/>
</g>
</g>
<g opacity="0.18">
<path d="M22.6604 22.6603C25.4218 17.8774 23.783 11.7615 19.0001 9.00005C14.2172 6.23862 8.10127 7.87737 5.33984 12.6603C2.57842 17.4432 4.21717 23.5591 9.0001 26.3206C13.783 29.082 19.8989 27.4432 22.6604 22.6603Z" stroke="url(#paint3_linear_1102_3738)" stroke-miterlimit="10"/>
<path d="M22.6604 22.6603C25.4218 17.8774 23.783 11.7615 19.0001 9.00005C14.2172 6.23862 8.10127 7.87737 5.33984 12.6603C2.57842 17.4432 4.21717 23.5591 9.0001 26.3206C13.783 29.082 19.8989 27.4432 22.6604 22.6603Z" fill="url(#paint4_linear_1102_3738)"/>
<g opacity="0.5">
<path d="M16.9269 20.553C16.4583 21.0263 15.8986 21.3997 15.2816 21.6507C14.7355 21.8587 14.1493 21.9404 13.5672 21.8894L13.1936 20.1721C13.7182 20.2066 14.2446 20.1424 14.7456 19.983C15.1602 19.8375 15.5384 19.6042 15.8544 19.2991C15.9932 19.1685 16.1112 19.0175 16.2044 18.8513C16.2825 18.718 16.3232 18.5659 16.3219 18.4114C16.3144 18.2711 16.2543 18.1389 16.1534 18.0411C16.0779 17.962 15.9812 17.9062 15.875 17.8803C15.7648 17.8538 15.6504 17.85 15.5388 17.8692C15.4062 17.8929 15.2764 17.93 15.1513 17.9799C15.0082 18.0361 14.8687 18.101 14.7334 18.1741C14.5938 18.2505 14.4559 18.3333 14.3177 18.4214C13.8803 18.7079 13.402 18.9265 12.899 19.0698C12.504 19.18 12.0864 19.1809 11.6908 19.0724C11.2991 18.9505 10.9469 18.7269 10.6699 18.4243C10.4273 18.177 10.2516 17.8721 10.159 17.5383C10.0682 17.2049 10.0473 16.8564 10.0976 16.5145C10.1525 16.1517 10.2703 15.8012 10.4458 15.4788C10.6306 15.1362 10.8681 14.8246 11.1494 14.5555C11.5713 14.1361 12.0677 13.7991 12.6131 13.5619C13.1309 13.3484 13.6893 13.2513 14.2488 13.2777L14.5917 14.8257C14.1717 14.8089 13.7528 14.8811 13.3625 15.0374C12.9804 15.1928 12.6318 15.4202 12.3356 15.7072C12.188 15.8427 12.0643 16.0019 11.9694 16.1783C11.8973 16.3116 11.8599 16.4609 11.8607 16.6124C11.8652 16.7499 11.9222 16.8805 12.0199 16.9774C12.1017 17.0685 12.2142 17.1261 12.3359 17.1393C12.4685 17.152 12.6022 17.1393 12.7301 17.1021C12.886 17.0615 13.0367 17.0034 13.1796 16.9289C13.3397 16.8456 13.4945 16.7527 13.6433 16.6506C13.9764 16.4347 14.3287 16.2502 14.6959 16.0994C15.0112 15.969 15.3438 15.8851 15.6833 15.8504C15.9885 15.8203 16.2967 15.8583 16.5854 15.9617C16.8908 16.0747 17.1661 16.2565 17.3898 16.4931C17.7504 16.8448 17.9913 17.3009 18.0785 17.797C18.1488 18.275 18.0832 18.7632 17.8891 19.2056C17.6636 19.7157 17.3362 20.1742 16.9269 20.553ZM17.0747 21.699L13.4727 17.7711L14.4049 17.4002L17.9319 20.8834L17.0747 21.699ZM14.6118 17.2097L13.679 17.5817L10.2862 14.2373L11.1372 13.4182L14.6118 17.2097Z" fill="url(#paint5_linear_1102_3738)"/>
</g>
</g>
<defs>
<linearGradient id="paint0_linear_1102_3738" x1="64.8342" y1="65.1997" x2="63.1677" y2="0.827234" gradientUnits="userSpaceOnUse">
<stop stop-color="white"/>
<stop offset="1" stop-color="#334470" stop-opacity="0"/>
</linearGradient>
<linearGradient id="paint1_linear_1102_3738" x1="45.0564" y1="-19.9414" x2="107.586" y2="154.846" gradientUnits="userSpaceOnUse">
<stop stop-color="#1D54AE"/>
<stop offset="1" stop-color="#334470" stop-opacity="0"/>
</linearGradient>
<linearGradient id="paint2_linear_1102_3738" x1="89.7275" y1="41.1093" x2="62.8983" y2="32.6517" gradientUnits="userSpaceOnUse">
<stop offset="0.03" stop-color="#5190FD"/>
<stop offset="0.2" stop-color="#71A4FA"/>
<stop offset="0.58" stop-color="#B7CFF4"/>
<stop offset="0.86" stop-color="#E3EAF0"/>
<stop offset="1" stop-color="#F4F4EE"/>
</linearGradient>
<linearGradient id="paint3_linear_1102_3738" x1="22.8447" y1="22.4658" x2="5.16303" y2="12.8586" gradientUnits="userSpaceOnUse">
<stop stop-color="white"/>
<stop offset="1" stop-color="#334470" stop-opacity="0"/>
</linearGradient>
<linearGradient id="paint4_linear_1102_3738" x1="-3.28754" y1="14.515" x2="53.786" y2="24.903" gradientUnits="userSpaceOnUse">
<stop stop-color="#1D54AE"/>
<stop offset="1" stop-color="#334470" stop-opacity="0"/>
</linearGradient>
<linearGradient id="paint5_linear_1102_3738" x1="20.2151" y1="11.9652" x2="13.7342" y2="17.9045" gradientUnits="userSpaceOnUse">
<stop offset="0.03" stop-color="#5190FD"/>
<stop offset="0.2" stop-color="#71A4FA"/>
<stop offset="0.58" stop-color="#B7CFF4"/>
<stop offset="0.86" stop-color="#E3EAF0"/>
<stop offset="1" stop-color="#F4F4EE"/>
</linearGradient>
</defs>
</svg>
